# xmcd
#
# Track frame offsets:
# 150
# 7492
# 20635
#
# Disc length: 441 seconds
#
#
# Revision: 2
# Processed by: cddbd v1.5.1PL0 Copyright (c) Steve Scherf et al.
# Submitted via: FreeRIP 2.70 
#
DISCID=2201b703
DTITLE=Brisbane Lions Football Club - Brisbane Lions Football Club Song
DYEAR=1999
DGENRE=Blues
TTITLE0=Brisbane Lions  Football Club Song - The Fable Singers
TTITLE1=One Day in September - Mike Brady
TTITLE2=Up there Cazaly - The Two Man Band
EXTD=YEAR: 1999 ID3G: 0
EXTT0=
EXTT1=
EXTT2=
PLAYORDER=
